<mxfile host="Electron" modified="2023-12-20T05:03:25.820Z" agent="Mozilla/5.0 (Windows NT 10.0; Win64; x64) AppleWebKit/537.36 (KHTML, like Gecko) draw.io/22.1.2 Chrome/114.0.5735.289 Electron/25.9.4 Safari/537.36" etag="4FE023MggYGchpg-NJUh" version="22.1.2" type="device">
  <diagram name="Page-1" id="c4acf3e9-155e-7222-9cf6-157b1a14988f">
    <mxGraphModel dx="5002" dy="3892" grid="0" gridSize="10" guides="1" tooltips="1" connect="1" arrows="1" fold="1" page="1" pageScale="1" pageWidth="850" pageHeight="1100" background="none" math="0" shadow="0">
      <root>
        <mxCell id="0" />
        <mxCell id="1" parent="0" />
        <mxCell id="2egfwh6IOahEDaefVFSt-95" value="" style="rounded=0;whiteSpace=wrap;html=1;" parent="1" vertex="1">
          <mxGeometry x="2870" y="1494" width="431" height="425" as="geometry" />
        </mxCell>
        <mxCell id="2egfwh6IOahEDaefVFSt-97" style="edgeStyle=orthogonalEdgeStyle;rounded=0;orthogonalLoop=1;jettySize=auto;html=1;dashed=1;dashPattern=1 1;endArrow=open;endFill=0;" parent="1" source="2egfwh6IOahEDaefVFSt-93" target="2egfwh6IOahEDaefVFSt-91" edge="1">
          <mxGeometry relative="1" as="geometry" />
        </mxCell>
        <mxCell id="2egfwh6IOahEDaefVFSt-98" value="&lt;font style=&quot;font-size: 25px;&quot;&gt;&amp;lt;&amp;lt;Binding&amp;gt;&amp;gt;&lt;/font&gt;" style="edgeLabel;html=1;align=center;verticalAlign=middle;resizable=0;points=[];" parent="2egfwh6IOahEDaefVFSt-97" vertex="1" connectable="0">
          <mxGeometry x="0.4659" y="-6" relative="1" as="geometry">
            <mxPoint x="-258" y="-24" as="offset" />
          </mxGeometry>
        </mxCell>
        <mxCell id="2egfwh6IOahEDaefVFSt-93" value="" style="rounded=0;whiteSpace=wrap;html=1;" parent="1" vertex="1">
          <mxGeometry x="-499" y="-111" width="1400" height="1009" as="geometry" />
        </mxCell>
        <mxCell id="2egfwh6IOahEDaefVFSt-99" style="edgeStyle=orthogonalEdgeStyle;rounded=0;orthogonalLoop=1;jettySize=auto;html=1;dashed=1;dashPattern=1 1;endArrow=open;endFill=0;" parent="1" source="2egfwh6IOahEDaefVFSt-91" target="2egfwh6IOahEDaefVFSt-95" edge="1">
          <mxGeometry relative="1" as="geometry" />
        </mxCell>
        <mxCell id="2egfwh6IOahEDaefVFSt-100" value="&lt;font style=&quot;font-size: 25px;&quot;&gt;&amp;lt;&amp;lt;Uses&amp;gt;&amp;gt;&lt;/font&gt;" style="edgeLabel;html=1;align=center;verticalAlign=middle;resizable=0;points=[];" parent="2egfwh6IOahEDaefVFSt-99" vertex="1" connectable="0">
          <mxGeometry x="-0.1501" y="-5" relative="1" as="geometry">
            <mxPoint x="-69" y="-74" as="offset" />
          </mxGeometry>
        </mxCell>
        <mxCell id="2egfwh6IOahEDaefVFSt-91" value="" style="rounded=0;whiteSpace=wrap;html=1;" parent="1" vertex="1">
          <mxGeometry x="-430" y="1303" width="2538" height="1148" as="geometry" />
        </mxCell>
        <mxCell id="2egfwh6IOahEDaefVFSt-1" value="&lt;p style=&quot;margin:0px;margin-top:4px;text-align:center;&quot;&gt;&lt;i&gt;&amp;lt;&amp;lt;Class&amp;gt;&amp;gt;&lt;/i&gt;&lt;br&gt;&lt;b&gt;Admin_Page_AddCar_ViewModel&lt;/b&gt;&lt;/p&gt;&lt;hr size=&quot;1&quot;&gt;&lt;p style=&quot;margin:0px;margin-left:4px;&quot;&gt;+ AddCar_Command: RelayCommand&lt;br&gt;+ GoTo_Cars: RelayCommand&lt;/p&gt;&lt;p style=&quot;margin:0px;margin-left:4px;&quot;&gt;+ Mark: String&lt;/p&gt;&lt;p style=&quot;margin:0px;margin-left:4px;&quot;&gt;+ Model: String&lt;/p&gt;&lt;p style=&quot;margin:0px;margin-left:4px;&quot;&gt;+ NumberOfCar: Int&lt;/p&gt;&lt;p style=&quot;margin:0px;margin-left:4px;&quot;&gt;- AddCar_Predicate: Predicate&amp;lt;object&amp;gt;&lt;/p&gt;" style="verticalAlign=top;align=left;overflow=fill;fontSize=12;fontFamily=Helvetica;html=1;rounded=0;shadow=0;comic=0;labelBackgroundColor=none;strokeWidth=1" parent="1" vertex="1">
          <mxGeometry x="942" y="1816" width="258" height="146" as="geometry" />
        </mxCell>
        <mxCell id="2egfwh6IOahEDaefVFSt-5" value="" style="group" parent="1" vertex="1" connectable="0">
          <mxGeometry x="115" y="2055" width="488" height="358" as="geometry" />
        </mxCell>
        <mxCell id="2egfwh6IOahEDaefVFSt-2" value="&lt;p style=&quot;margin:0px;margin-top:4px;text-align:center;&quot;&gt;&lt;i&gt;&amp;lt;&amp;lt;Class&amp;gt;&amp;gt;&lt;/i&gt;&lt;br&gt;&lt;b&gt;Admin_Page_ViewModel&lt;/b&gt;&lt;/p&gt;&lt;hr size=&quot;1&quot;&gt;&lt;p style=&quot;margin:0px;margin-left:4px;&quot;&gt;+ CurrentPageViewModel: IPageViewModel&lt;br&gt;+ GoTo_Login: RelayCommand&lt;/p&gt;&lt;p style=&quot;margin:0px;margin-left:4px;&quot;&gt;+ GoToAdmin_SetPrice: RelayCommand&lt;/p&gt;&lt;p style=&quot;margin:0px;margin-left:4px;&quot;&gt;+ GoToAdmin_User: RelayCommand&lt;br&gt;&lt;/p&gt;&lt;p style=&quot;margin:0px;margin-left:4px;&quot;&gt;+ GoToAdmin_UserOnMap: RelayCommand&lt;br&gt;&lt;/p&gt;&lt;p style=&quot;margin:0px;margin-left:4px;&quot;&gt;+ GoToCompany_Statistic: RelayCommand&lt;br&gt;&lt;/p&gt;&lt;p style=&quot;margin:0px;margin-left:4px;&quot;&gt;+ PageViewModels: List&amp;lt;IPageViewModel&amp;gt;&lt;/p&gt;&lt;p style=&quot;margin:0px;margin-left:4px;&quot;&gt;+ num: double&lt;/p&gt;&lt;p style=&quot;margin:0px;margin-left:4px;&quot;&gt;+ profit: List&amp;lt;DateTime?&amp;gt;&lt;/p&gt;&lt;p style=&quot;margin:0px;margin-left:4px;&quot;&gt;&lt;br&gt;&lt;/p&gt;" style="verticalAlign=top;align=left;overflow=fill;fontSize=12;fontFamily=Helvetica;html=1;rounded=0;shadow=0;comic=0;labelBackgroundColor=none;strokeWidth=1" parent="2egfwh6IOahEDaefVFSt-5" vertex="1">
          <mxGeometry y="-15.62" width="488" height="316.62" as="geometry" />
        </mxCell>
        <mxCell id="2egfwh6IOahEDaefVFSt-4" value="- ChangeViewModel(Project_Work_WPF.Navigation.IPageViewModel viewModel): void&lt;br&gt;- GoTo_AddCar(object obj): void&lt;br&gt;- GoTo_AddDriver(object obj): void&lt;br&gt;- GoTo_SetPrice(object obj): void&lt;br&gt;- GoTo_Statistic(object obj): void&lt;br&gt;-&amp;nbsp;GoToAdmin_UseronMap(object obj): void&lt;br&gt;-&amp;nbsp;GoToAdmin_UserPage(object obj): void&amp;nbsp;" style="text;html=1;strokeColor=none;fillColor=none;align=left;verticalAlign=middle;whiteSpace=wrap;rounded=0;" parent="2egfwh6IOahEDaefVFSt-5" vertex="1">
          <mxGeometry y="177" width="488" height="120" as="geometry" />
        </mxCell>
        <mxCell id="2egfwh6IOahEDaefVFSt-3" value="" style="endArrow=none;html=1;rounded=0;exitX=0;exitY=0.75;exitDx=0;exitDy=0;entryX=1;entryY=0.75;entryDx=0;entryDy=0;" parent="2egfwh6IOahEDaefVFSt-5" edge="1">
          <mxGeometry width="50" height="50" relative="1" as="geometry">
            <mxPoint y="175.5945454545456" as="sourcePoint" />
            <mxPoint x="488" y="175.59454545454537" as="targetPoint" />
          </mxGeometry>
        </mxCell>
        <mxCell id="2egfwh6IOahEDaefVFSt-7" value="" style="group" parent="1" vertex="1" connectable="0">
          <mxGeometry x="1446" y="2058" width="518" height="358" as="geometry" />
        </mxCell>
        <mxCell id="2egfwh6IOahEDaefVFSt-8" value="&lt;p style=&quot;margin:0px;margin-top:4px;text-align:center;&quot;&gt;&lt;i&gt;&amp;lt;&amp;lt;Class&amp;gt;&amp;gt;&lt;/i&gt;&lt;br&gt;&lt;b&gt;History_Page_ViewModel&lt;/b&gt;&lt;/p&gt;&lt;hr size=&quot;1&quot;&gt;&lt;p style=&quot;margin:0px;margin-left:4px;&quot;&gt;+ HistoryForGrid: List&amp;lt;USERHISTORY&amp;gt;&lt;br&gt;+ Log_Out: RelayCommand&lt;/p&gt;&lt;p style=&quot;margin:0px;margin-left:4px;&quot;&gt;+ user: TAXIUSER&lt;/p&gt;&lt;p style=&quot;margin:0px;margin-left:4px;&quot;&gt;&lt;br&gt;&lt;/p&gt;&lt;p style=&quot;margin:0px;margin-left:4px;&quot;&gt;&lt;br&gt;&lt;/p&gt;" style="verticalAlign=top;align=left;overflow=fill;fontSize=12;fontFamily=Helvetica;html=1;rounded=0;shadow=0;comic=0;labelBackgroundColor=none;strokeWidth=1" parent="2egfwh6IOahEDaefVFSt-7" vertex="1">
          <mxGeometry y="-15.62" width="319" height="147.62" as="geometry" />
        </mxCell>
        <mxCell id="2egfwh6IOahEDaefVFSt-9" value="+ SelectHistory():&amp;nbsp;System.Collections&lt;br&gt;.Generic.List&amp;lt;Project_Work_WPF.GETHISTORY_Result&amp;gt;&amp;nbsp;" style="text;html=1;strokeColor=none;fillColor=none;align=left;verticalAlign=middle;whiteSpace=wrap;rounded=0;" parent="2egfwh6IOahEDaefVFSt-7" vertex="1">
          <mxGeometry y="82.69" width="518" height="45.31" as="geometry" />
        </mxCell>
        <mxCell id="2egfwh6IOahEDaefVFSt-10" value="" style="endArrow=none;html=1;rounded=0;exitX=0;exitY=0.75;exitDx=0;exitDy=0;entryX=0.614;entryY=-0.015;entryDx=0;entryDy=0;entryPerimeter=0;" parent="2egfwh6IOahEDaefVFSt-7" target="2egfwh6IOahEDaefVFSt-9" edge="1">
          <mxGeometry width="50" height="50" relative="1" as="geometry">
            <mxPoint y="80.5945454545456" as="sourcePoint" />
            <mxPoint x="518" y="80.59454545454537" as="targetPoint" />
          </mxGeometry>
        </mxCell>
        <mxCell id="2egfwh6IOahEDaefVFSt-11" value="&lt;p style=&quot;margin:0px;margin-top:4px;text-align:center;&quot;&gt;&lt;i&gt;&amp;lt;&amp;lt;Class&amp;gt;&amp;gt;&lt;/i&gt;&lt;br&gt;&lt;b&gt;User_Page_ViewModel&lt;/b&gt;&lt;/p&gt;&lt;hr size=&quot;1&quot;&gt;&lt;p style=&quot;margin:0px;margin-left:4px;&quot;&gt;- _httpClient: HttpClient&lt;br&gt;- counter: Int&lt;/p&gt;&lt;p style=&quot;margin:0px;margin-left:4px;&quot;&gt;- currentdeparture: Departure&lt;/p&gt;&lt;p style=&quot;margin:0px;margin-left:4px;&quot;&gt;- departure_finished: bool&lt;/p&gt;&lt;p style=&quot;margin:0px;margin-left:4px;&quot;&gt;- departure_finished_object: Predicate&amp;lt;object&amp;gt;&lt;/p&gt;&lt;p style=&quot;margin:0px;margin-left:4px;&quot;&gt;- Distance: double&lt;/p&gt;&lt;p style=&quot;margin:0px;margin-left:4px;&quot;&gt;- FromLatitude: double&lt;/p&gt;&lt;p style=&quot;margin:0px;margin-left:4px;&quot;&gt;- FromLongitude: double&lt;/p&gt;&lt;p style=&quot;margin:0px;margin-left:4px;&quot;&gt;- Get_Taxi_Predicate: Predicate&amp;lt;object&amp;gt;&lt;/p&gt;&lt;p style=&quot;margin:0px;margin-left:4px;&quot;&gt;&lt;br&gt;&lt;/p&gt;&lt;p style=&quot;margin:0px;margin-left:4px;&quot;&gt;&lt;br&gt;&lt;/p&gt;" style="verticalAlign=top;align=left;overflow=fill;fontSize=12;fontFamily=Helvetica;html=1;rounded=0;shadow=0;comic=0;labelBackgroundColor=none;strokeWidth=1" parent="1" vertex="1">
          <mxGeometry x="181" y="1427" width="488" height="316.62" as="geometry" />
        </mxCell>
        <mxCell id="2egfwh6IOahEDaefVFSt-12" value="- ChangeViewModel(Project_Work_WPF.Navigation.IPageViewModel viewModel): void&lt;br&gt;- GoTo_AddCar(object obj): void&lt;br&gt;- GoTo_AddDriver(object obj): void&lt;br&gt;- GoTo_SetPrice(object obj): void&lt;br&gt;- GoTo_Statistic(object obj): void&lt;br&gt;-&amp;nbsp;GoToAdmin_UseronMap(object obj): void&lt;br&gt;-&amp;nbsp;GoToAdmin_UserPage(object obj): void&amp;nbsp;" style="text;html=1;strokeColor=none;fillColor=none;align=left;verticalAlign=middle;whiteSpace=wrap;rounded=0;" parent="1" vertex="1">
          <mxGeometry x="181" y="1618" width="488" height="120" as="geometry" />
        </mxCell>
        <mxCell id="2egfwh6IOahEDaefVFSt-13" value="" style="endArrow=none;html=1;rounded=0;exitX=0;exitY=0.75;exitDx=0;exitDy=0;entryX=1;entryY=0.75;entryDx=0;entryDy=0;" parent="1" edge="1">
          <mxGeometry width="50" height="50" relative="1" as="geometry">
            <mxPoint x="181" y="1618.0045454545457" as="sourcePoint" />
            <mxPoint x="669" y="1618.0045454545452" as="targetPoint" />
          </mxGeometry>
        </mxCell>
        <mxCell id="2egfwh6IOahEDaefVFSt-14" value="&lt;i style=&quot;border-color: var(--border-color); font-weight: 400;&quot;&gt;&amp;lt;&amp;lt;Class&amp;gt;&amp;gt;&lt;/i&gt;&lt;br style=&quot;border-color: var(--border-color); font-weight: 400;&quot;&gt;&lt;b style=&quot;border-color: var(--border-color);&quot;&gt;User_Page_ViewModel&lt;/b&gt;" style="swimlane;fontStyle=1;align=center;verticalAlign=top;childLayout=stackLayout;horizontal=1;startSize=48;horizontalStack=0;resizeParent=1;resizeParentMax=0;resizeLast=0;collapsible=1;marginBottom=0;whiteSpace=wrap;html=1;" parent="1" vertex="1">
          <mxGeometry x="-367" y="1427" width="435" height="523" as="geometry" />
        </mxCell>
        <mxCell id="2egfwh6IOahEDaefVFSt-15" value="&lt;p style=&quot;border-color: var(--border-color); margin: 0px 0px 0px 4px;&quot;&gt;- _httpClient: HttpClient&lt;br style=&quot;border-color: var(--border-color);&quot;&gt;- counter: Int&lt;/p&gt;&lt;p style=&quot;border-color: var(--border-color); margin: 0px 0px 0px 4px;&quot;&gt;- currentdeparture: Departure&lt;/p&gt;&lt;p style=&quot;border-color: var(--border-color); margin: 0px 0px 0px 4px;&quot;&gt;- departure_finished: bool&lt;/p&gt;&lt;p style=&quot;border-color: var(--border-color); margin: 0px 0px 0px 4px;&quot;&gt;- departure_finished_object: Predicate&amp;lt;object&amp;gt;&lt;/p&gt;&lt;p style=&quot;border-color: var(--border-color); margin: 0px 0px 0px 4px;&quot;&gt;- Distance: double&lt;/p&gt;&lt;p style=&quot;border-color: var(--border-color); margin: 0px 0px 0px 4px;&quot;&gt;- FromLatitude: double&lt;/p&gt;&lt;p style=&quot;border-color: var(--border-color); margin: 0px 0px 0px 4px;&quot;&gt;- FromLongitude: double&lt;/p&gt;&lt;p style=&quot;border-color: var(--border-color); margin: 0px 0px 0px 4px;&quot;&gt;- Get_Taxi_Predicate: Predicate&amp;lt;object&amp;gt;&lt;/p&gt;&lt;p style=&quot;border-color: var(--border-color); margin: 0px 0px 0px 4px;&quot;&gt;- imgB: ImageBrush&lt;/p&gt;&lt;p style=&quot;border-color: var(--border-color); margin: 0px 0px 0px 4px;&quot;&gt;- Per_Month_Timer: DispatcherTimer&lt;/p&gt;&lt;p style=&quot;border-color: var(--border-color); margin: 0px 0px 0px 4px;&quot;&gt;&lt;span style=&quot;background-color: initial;&quot;&gt;+ PriceForTaxi: float&lt;/span&gt;&lt;/p&gt;&lt;p style=&quot;border-color: var(--border-color); margin: 0px 0px 0px 4px;&quot;&gt;&lt;span style=&quot;background-color: initial;&quot;&gt;+ routed_clicked: bool&lt;/span&gt;&lt;/p&gt;&lt;p style=&quot;border-color: var(--border-color); margin: 0px 0px 0px 4px;&quot;&gt;&lt;span style=&quot;background-color: initial;&quot;&gt;+ car: CAR&lt;/span&gt;&lt;/p&gt;&lt;p style=&quot;border-color: var(--border-color); margin: 0px 0px 0px 4px;&quot;&gt;&lt;span style=&quot;background-color: initial;&quot;&gt;+ center: Location&lt;/span&gt;&lt;/p&gt;&lt;p style=&quot;border-color: var(--border-color); margin: 0px 0px 0px 4px;&quot;&gt;+ dateTime: DateTime&lt;/p&gt;&lt;p style=&quot;border-color: var(--border-color); margin: 0px 0px 0px 4px;&quot;&gt;+ DeleteUser_Command: RelayCommand&lt;/p&gt;&lt;p style=&quot;border-color: var(--border-color); margin: 0px 0px 0px 4px;&quot;&gt;+ Departures: ObservableCollection&amp;lt;Departure&amp;gt;&lt;/p&gt;&lt;p style=&quot;border-color: var(--border-color); margin: 0px 0px 0px 4px;&quot;&gt;+ driver: DRIVER&lt;/p&gt;&lt;p style=&quot;border-color: var(--border-color); margin: 0px 0px 0px 4px;&quot;&gt;+ From: String&lt;/p&gt;&lt;p style=&quot;border-color: var(--border-color); margin: 0px 0px 0px 4px;&quot;&gt;+ Price: String&lt;/p&gt;&lt;p style=&quot;border-color: var(--border-color); margin: 0px 0px 0px 4px;&quot;&gt;+ To: String&lt;/p&gt;&lt;p style=&quot;border-color: var(--border-color); margin: 0px 0px 0px 4px;&quot;&gt;+ zoomlevel: double&lt;/p&gt;" style="text;strokeColor=none;fillColor=none;align=left;verticalAlign=top;spacingLeft=4;spacingRight=4;overflow=hidden;rotatable=0;points=[[0,0.5],[1,0.5]];portConstraint=eastwest;whiteSpace=wrap;html=1;" parent="2egfwh6IOahEDaefVFSt-14" vertex="1">
          <mxGeometry y="48" width="435" height="348" as="geometry" />
        </mxCell>
        <mxCell id="2egfwh6IOahEDaefVFSt-16" value="" style="line;strokeWidth=1;fillColor=none;align=left;verticalAlign=middle;spacingTop=-1;spacingLeft=3;spacingRight=3;rotatable=0;labelPosition=right;points=[];portConstraint=eastwest;strokeColor=inherit;" parent="2egfwh6IOahEDaefVFSt-14" vertex="1">
          <mxGeometry y="396" width="435" height="8" as="geometry" />
        </mxCell>
        <mxCell id="2egfwh6IOahEDaefVFSt-17" value="+ DeleteUser(): void&lt;br&gt;- Get_Taxi(): void&lt;br&gt;+ GetCurrentLocation(): void&lt;br&gt;- GetIPAdress(): Task&amp;lt;String&amp;gt;&lt;br&gt;+ GetResponce(): Task&amp;lt;Responce&amp;gt;&lt;br&gt;- Rotate(): void&lt;br&gt;- Timer_Tick(): void" style="text;strokeColor=none;fillColor=none;align=left;verticalAlign=top;spacingLeft=4;spacingRight=4;overflow=hidden;rotatable=0;points=[[0,0.5],[1,0.5]];portConstraint=eastwest;whiteSpace=wrap;html=1;" parent="2egfwh6IOahEDaefVFSt-14" vertex="1">
          <mxGeometry y="404" width="435" height="119" as="geometry" />
        </mxCell>
        <mxCell id="2egfwh6IOahEDaefVFSt-18" value="&lt;p style=&quot;margin:0px;margin-top:4px;text-align:center;&quot;&gt;&lt;i&gt;&amp;lt;&amp;lt;Class&amp;gt;&amp;gt;&lt;/i&gt;&lt;br&gt;&lt;b&gt;Admin_Page_AddDriver_ViewModel&lt;/b&gt;&lt;/p&gt;&lt;hr size=&quot;1&quot;&gt;&lt;p style=&quot;margin:0px;margin-left:4px;&quot;&gt;+ AddDriver_Command: RelayCommand&lt;br&gt;+ GoTo_Drivers: RelayCommand&lt;/p&gt;&lt;p style=&quot;margin:0px;margin-left:4px;&quot;&gt;+ Age: Int&lt;/p&gt;&lt;p style=&quot;margin:0px;margin-left:4px;&quot;&gt;+ Email: String&lt;/p&gt;&lt;p style=&quot;margin:0px;margin-left:4px;&quot;&gt;+ Name: String&lt;/p&gt;&lt;p style=&quot;margin:0px;margin-left:4px;&quot;&gt;+ Surname: String&lt;/p&gt;&lt;p style=&quot;margin:0px;margin-left:4px;&quot;&gt;- AddDriver_Predicate: Predicate&amp;lt;object&amp;gt;&lt;/p&gt;" style="verticalAlign=top;align=left;overflow=fill;fontSize=12;fontFamily=Helvetica;html=1;rounded=0;shadow=0;comic=0;labelBackgroundColor=none;strokeWidth=1" parent="1" vertex="1">
          <mxGeometry x="1252" y="1816" width="258" height="155" as="geometry" />
        </mxCell>
        <mxCell id="2egfwh6IOahEDaefVFSt-19" value="&lt;i style=&quot;border-color: var(--border-color); font-weight: 400;&quot;&gt;&amp;lt;&amp;lt;Class&amp;gt;&amp;gt;&lt;/i&gt;&lt;br style=&quot;border-color: var(--border-color); font-weight: 400;&quot;&gt;&lt;b style=&quot;border-color: var(--border-color);&quot;&gt;User_UserPage_ViewModel&lt;/b&gt;" style="swimlane;fontStyle=1;align=center;verticalAlign=top;childLayout=stackLayout;horizontal=1;startSize=48;horizontalStack=0;resizeParent=1;resizeParentMax=0;resizeLast=0;collapsible=1;marginBottom=0;whiteSpace=wrap;html=1;" parent="1" vertex="1">
          <mxGeometry x="783" y="1427" width="267" height="207" as="geometry" />
        </mxCell>
        <mxCell id="2egfwh6IOahEDaefVFSt-20" value="&lt;p style=&quot;border-color: var(--border-color); margin: 0px 0px 0px 4px;&quot;&gt;+ Add_Driver_Command: RelayCommand&lt;/p&gt;&lt;p style=&quot;border-color: var(--border-color); margin: 0px 0px 0px 4px;&quot;&gt;+ DeleteDriver_Command: RelayCommand&lt;/p&gt;&lt;p style=&quot;border-color: var(--border-color); margin: 0px 0px 0px 4px;&quot;&gt;+ Drivers: BindingList&amp;lt;GETDRIVERS_Result&amp;gt;&lt;/p&gt;&lt;p style=&quot;border-color: var(--border-color); margin: 0px 0px 0px 4px;&quot;&gt;+ Save_Data_Command: RelayCommand&lt;/p&gt;&lt;p style=&quot;border-color: var(--border-color); margin: 0px 0px 0px 4px;&quot;&gt;+ selecteditem: object&lt;/p&gt;&lt;p style=&quot;border-color: var(--border-color); margin: 0px 0px 0px 4px;&quot;&gt;+ TotalProfit: double&lt;/p&gt;&lt;p style=&quot;border-color: var(--border-color); margin: 0px 0px 0px 4px;&quot;&gt;- DeleteDriver_Predicate: Predicate&amp;lt;object&amp;gt;&lt;/p&gt;" style="text;strokeColor=none;fillColor=none;align=left;verticalAlign=top;spacingLeft=4;spacingRight=4;overflow=hidden;rotatable=0;points=[[0,0.5],[1,0.5]];portConstraint=eastwest;whiteSpace=wrap;html=1;" parent="2egfwh6IOahEDaefVFSt-19" vertex="1">
          <mxGeometry y="48" width="267" height="119" as="geometry" />
        </mxCell>
        <mxCell id="2egfwh6IOahEDaefVFSt-21" value="" style="line;strokeWidth=1;fillColor=none;align=left;verticalAlign=middle;spacingTop=-1;spacingLeft=3;spacingRight=3;rotatable=0;labelPosition=right;points=[];portConstraint=eastwest;strokeColor=inherit;" parent="2egfwh6IOahEDaefVFSt-19" vertex="1">
          <mxGeometry y="167" width="267" height="8" as="geometry" />
        </mxCell>
        <mxCell id="2egfwh6IOahEDaefVFSt-22" value="+ Admin_UserPage_ViewModel(): void" style="text;strokeColor=none;fillColor=none;align=left;verticalAlign=top;spacingLeft=4;spacingRight=4;overflow=hidden;rotatable=0;points=[[0,0.5],[1,0.5]];portConstraint=eastwest;whiteSpace=wrap;html=1;" parent="2egfwh6IOahEDaefVFSt-19" vertex="1">
          <mxGeometry y="175" width="267" height="32" as="geometry" />
        </mxCell>
        <mxCell id="2egfwh6IOahEDaefVFSt-23" value="&lt;i style=&quot;border-color: var(--border-color); font-weight: 400;&quot;&gt;&amp;lt;&amp;lt;Class&amp;gt;&amp;gt;&lt;/i&gt;&lt;br style=&quot;border-color: var(--border-color); font-weight: 400;&quot;&gt;&lt;b style=&quot;border-color: var(--border-color);&quot;&gt;Login_Page_ViewModel&lt;/b&gt;" style="swimlane;fontStyle=1;align=center;verticalAlign=top;childLayout=stackLayout;horizontal=1;startSize=48;horizontalStack=0;resizeParent=1;resizeParentMax=0;resizeLast=0;collapsible=1;marginBottom=0;whiteSpace=wrap;html=1;" parent="1" vertex="1">
          <mxGeometry x="-275" y="2012" width="267" height="192" as="geometry" />
        </mxCell>
        <mxCell id="2egfwh6IOahEDaefVFSt-24" value="&lt;p style=&quot;border-color: var(--border-color); margin: 0px 0px 0px 4px;&quot;&gt;+ GoTo_Register: ICommand&lt;/p&gt;&lt;p style=&quot;border-color: var(--border-color); margin: 0px 0px 0px 4px;&quot;&gt;+ GoTo_SignIn: RelayCommand&lt;/p&gt;&lt;p style=&quot;border-color: var(--border-color); margin: 0px 0px 0px 4px;&quot;&gt;+ Hide: RelayCommand&lt;/p&gt;&lt;p style=&quot;border-color: var(--border-color); margin: 0px 0px 0px 4px;&quot;&gt;+ Password: String&lt;/p&gt;&lt;p style=&quot;border-color: var(--border-color); margin: 0px 0px 0px 4px;&quot;&gt;+ Username: String&lt;/p&gt;&lt;p style=&quot;border-color: var(--border-color); margin: 0px 0px 0px 4px;&quot;&gt;- Hidden: bool&lt;/p&gt;" style="text;strokeColor=none;fillColor=none;align=left;verticalAlign=top;spacingLeft=4;spacingRight=4;overflow=hidden;rotatable=0;points=[[0,0.5],[1,0.5]];portConstraint=eastwest;whiteSpace=wrap;html=1;" parent="2egfwh6IOahEDaefVFSt-23" vertex="1">
          <mxGeometry y="48" width="267" height="104" as="geometry" />
        </mxCell>
        <mxCell id="2egfwh6IOahEDaefVFSt-25" value="" style="line;strokeWidth=1;fillColor=none;align=left;verticalAlign=middle;spacingTop=-1;spacingLeft=3;spacingRight=3;rotatable=0;labelPosition=right;points=[];portConstraint=eastwest;strokeColor=inherit;" parent="2egfwh6IOahEDaefVFSt-23" vertex="1">
          <mxGeometry y="152" width="267" height="8" as="geometry" />
        </mxCell>
        <mxCell id="2egfwh6IOahEDaefVFSt-26" value="- Hide_Button_Click(): void" style="text;strokeColor=none;fillColor=none;align=left;verticalAlign=top;spacingLeft=4;spacingRight=4;overflow=hidden;rotatable=0;points=[[0,0.5],[1,0.5]];portConstraint=eastwest;whiteSpace=wrap;html=1;" parent="2egfwh6IOahEDaefVFSt-23" vertex="1">
          <mxGeometry y="160" width="267" height="32" as="geometry" />
        </mxCell>
        <mxCell id="2egfwh6IOahEDaefVFSt-27" value="&lt;i style=&quot;border-color: var(--border-color); font-weight: 400;&quot;&gt;&amp;lt;&amp;lt;Class&amp;gt;&amp;gt;&lt;/i&gt;&lt;br style=&quot;border-color: var(--border-color); font-weight: 400;&quot;&gt;&lt;b style=&quot;border-color: var(--border-color);&quot;&gt;User_ViewModel&lt;/b&gt;" style="swimlane;fontStyle=1;align=center;verticalAlign=top;childLayout=stackLayout;horizontal=1;startSize=48;horizontalStack=0;resizeParent=1;resizeParentMax=0;resizeLast=0;collapsible=1;marginBottom=0;whiteSpace=wrap;html=1;" parent="1" vertex="1">
          <mxGeometry x="1589" y="1713" width="289" height="255" as="geometry" />
        </mxCell>
        <mxCell id="2egfwh6IOahEDaefVFSt-28" value="&lt;p style=&quot;border-color: var(--border-color); margin: 0px 0px 0px 4px;&quot;&gt;- departure_finished: bool&lt;/p&gt;&lt;p style=&quot;border-color: var(--border-color); margin: 0px 0px 0px 4px;&quot;&gt;- departure_finished_object: Predicate&amp;lt;object&amp;gt;&lt;/p&gt;&lt;p style=&quot;border-color: var(--border-color); margin: 0px 0px 0px 4px;&quot;&gt;+ Close_Command: RelayCommand&amp;lt;Window&amp;gt;&lt;/p&gt;&lt;p style=&quot;border-color: var(--border-color); margin: 0px 0px 0px 4px;&quot;&gt;+ Login: String&lt;/p&gt;&lt;p style=&quot;border-color: var(--border-color); margin: 0px 0px 0px 4px;&quot;&gt;+ Name: String&lt;/p&gt;&lt;p style=&quot;border-color: var(--border-color); margin: 0px 0px 0px 4px;&quot;&gt;+ Number: String&lt;br&gt;+ Password: String&lt;/p&gt;&lt;p style=&quot;border-color: var(--border-color); margin: 0px 0px 0px 4px;&quot;&gt;+ Save_Command: RelayCommand&lt;/p&gt;&lt;p style=&quot;border-color: var(--border-color); margin: 0px 0px 0px 4px;&quot;&gt;+ Surname: String&lt;br&gt;+ user: TAXIUSER&lt;/p&gt;" style="text;strokeColor=none;fillColor=none;align=left;verticalAlign=top;spacingLeft=4;spacingRight=4;overflow=hidden;rotatable=0;points=[[0,0.5],[1,0.5]];portConstraint=eastwest;whiteSpace=wrap;html=1;" parent="2egfwh6IOahEDaefVFSt-27" vertex="1">
          <mxGeometry y="48" width="289" height="156" as="geometry" />
        </mxCell>
        <mxCell id="2egfwh6IOahEDaefVFSt-29" value="" style="line;strokeWidth=1;fillColor=none;align=left;verticalAlign=middle;spacingTop=-1;spacingLeft=3;spacingRight=3;rotatable=0;labelPosition=right;points=[];portConstraint=eastwest;strokeColor=inherit;" parent="2egfwh6IOahEDaefVFSt-27" vertex="1">
          <mxGeometry y="204" width="289" height="8" as="geometry" />
        </mxCell>
        <mxCell id="2egfwh6IOahEDaefVFSt-30" value="- Close(): void&lt;br&gt;+ Save(): void" style="text;strokeColor=none;fillColor=none;align=left;verticalAlign=top;spacingLeft=4;spacingRight=4;overflow=hidden;rotatable=0;points=[[0,0.5],[1,0.5]];portConstraint=eastwest;whiteSpace=wrap;html=1;" parent="2egfwh6IOahEDaefVFSt-27" vertex="1">
          <mxGeometry y="212" width="289" height="43" as="geometry" />
        </mxCell>
        <mxCell id="2egfwh6IOahEDaefVFSt-31" value="&lt;p style=&quot;margin:0px;margin-top:4px;text-align:center;&quot;&gt;&lt;i&gt;&amp;lt;&amp;lt;Class&amp;gt;&amp;gt;&lt;/i&gt;&lt;br&gt;&lt;b&gt;Admin_Page_Company_Statistic_ViewModel&lt;/b&gt;&lt;/p&gt;&lt;hr size=&quot;1&quot;&gt;&lt;p style=&quot;margin:0px;margin-left:4px;&quot;&gt;+ Profit: double&lt;/p&gt;&lt;p style=&quot;margin:0px;margin-left:4px;&quot;&gt;+ Statistics: ObservableCollection&amp;lt;Statistics&amp;gt;&lt;/p&gt;" style="verticalAlign=top;align=left;overflow=fill;fontSize=12;fontFamily=Helvetica;html=1;rounded=0;shadow=0;comic=0;labelBackgroundColor=none;strokeWidth=1" parent="1" vertex="1">
          <mxGeometry x="623" y="1954" width="278" height="83" as="geometry" />
        </mxCell>
        <mxCell id="2egfwh6IOahEDaefVFSt-32" value="&lt;i style=&quot;border-color: var(--border-color); font-weight: 400;&quot;&gt;&amp;lt;&amp;lt;Class&amp;gt;&amp;gt;&lt;/i&gt;&lt;br style=&quot;border-color: var(--border-color); font-weight: 400;&quot;&gt;&lt;b style=&quot;border-color: var(--border-color);&quot;&gt;MainViewModel&lt;/b&gt;" style="swimlane;fontStyle=1;align=center;verticalAlign=top;childLayout=stackLayout;horizontal=1;startSize=48;horizontalStack=0;resizeParent=1;resizeParentMax=0;resizeLast=0;collapsible=1;marginBottom=0;whiteSpace=wrap;html=1;" parent="1" vertex="1">
          <mxGeometry x="1152" y="1427" width="402" height="302" as="geometry" />
        </mxCell>
        <mxCell id="2egfwh6IOahEDaefVFSt-33" value="&lt;p style=&quot;border-color: var(--border-color); margin: 0px 0px 0px 4px;&quot;&gt;+ CurrentPageViewModel: IPageViewModel&lt;/p&gt;&lt;p style=&quot;border-color: var(--border-color); margin: 0px 0px 0px 4px;&quot;&gt;+ PageViewModels: List&amp;lt;IPageViewModel&amp;gt;&lt;/p&gt;&lt;p style=&quot;border-color: var(--border-color); margin: 0px 0px 0px 4px;&quot;&gt;+ Logged_As: String&lt;/p&gt;" style="text;strokeColor=none;fillColor=none;align=left;verticalAlign=top;spacingLeft=4;spacingRight=4;overflow=hidden;rotatable=0;points=[[0,0.5],[1,0.5]];portConstraint=eastwest;whiteSpace=wrap;html=1;" parent="2egfwh6IOahEDaefVFSt-32" vertex="1">
          <mxGeometry y="48" width="402" height="59" as="geometry" />
        </mxCell>
        <mxCell id="2egfwh6IOahEDaefVFSt-34" value="" style="line;strokeWidth=1;fillColor=none;align=left;verticalAlign=middle;spacingTop=-1;spacingLeft=3;spacingRight=3;rotatable=0;labelPosition=right;points=[];portConstraint=eastwest;strokeColor=inherit;" parent="2egfwh6IOahEDaefVFSt-32" vertex="1">
          <mxGeometry y="107" width="402" height="8" as="geometry" />
        </mxCell>
        <mxCell id="2egfwh6IOahEDaefVFSt-35" value="+&amp;nbsp;Add_User(login: string, password: string, name: string, surname: string, phonenumber: string): void&lt;br&gt;-&amp;nbsp;ChangeViewModel(Project_Work_WPF.Navigation.IPageViewModel viewModel): void&lt;br&gt;+&amp;nbsp;Check_Admin(username: string, password: string): bool&lt;br&gt;+&amp;nbsp;Check_User(username: string, password: string): bool&lt;br&gt;- GoToAccount(obj: object): void&lt;br&gt;- GoToAdmin(obj: object): void&lt;br&gt;- GoToHistory(obj: object): void&lt;br&gt;- GoToLogIn(obj: object): void&lt;br&gt;- GoToRegister(obj: object): void&lt;br&gt;- GoToUser(obj: object): void" style="text;strokeColor=none;fillColor=none;align=left;verticalAlign=top;spacingLeft=4;spacingRight=4;overflow=hidden;rotatable=0;points=[[0,0.5],[1,0.5]];portConstraint=eastwest;whiteSpace=wrap;html=1;" parent="2egfwh6IOahEDaefVFSt-32" vertex="1">
          <mxGeometry y="115" width="402" height="187" as="geometry" />
        </mxCell>
        <mxCell id="2egfwh6IOahEDaefVFSt-36" value="&lt;p style=&quot;margin:0px;margin-top:4px;text-align:center;&quot;&gt;&lt;i&gt;&amp;lt;&amp;lt;Class&amp;gt;&amp;gt;&lt;/i&gt;&lt;br&gt;&lt;b&gt;Admin_Page_DriverOnMap_ViewModel&lt;/b&gt;&lt;/p&gt;&lt;hr size=&quot;1&quot;&gt;&lt;p style=&quot;margin:0px;margin-left:4px;&quot;&gt;+ AddCar_Command: RelayCommand&lt;br&gt;+ Cars: BindingList&amp;lt;GETCARS_Result&amp;gt;&lt;/p&gt;&lt;p style=&quot;margin:0px;margin-left:4px;&quot;&gt;+ DeleteCar_Command: RelayCommand&lt;/p&gt;&lt;p style=&quot;margin:0px;margin-left:4px;&quot;&gt;+ Save_Data_Command: RelayCommand&lt;/p&gt;&lt;p style=&quot;margin:0px;margin-left:4px;&quot;&gt;+ selecteditem: object&lt;/p&gt;&lt;p style=&quot;margin:0px;margin-left:4px;&quot;&gt;+ TotalProfit: double&lt;/p&gt;" style="verticalAlign=top;align=left;overflow=fill;fontSize=12;fontFamily=Helvetica;html=1;rounded=0;shadow=0;comic=0;labelBackgroundColor=none;strokeWidth=1" parent="1" vertex="1">
          <mxGeometry x="284" y="1840" width="258" height="155" as="geometry" />
        </mxCell>
        <mxCell id="2egfwh6IOahEDaefVFSt-37" value="&lt;i style=&quot;border-color: var(--border-color); font-weight: 400;&quot;&gt;&amp;lt;&amp;lt;Class&amp;gt;&amp;gt;&lt;/i&gt;&lt;br style=&quot;border-color: var(--border-color); font-weight: 400;&quot;&gt;&lt;b style=&quot;border-color: var(--border-color);&quot;&gt;Register_Page_VIewModel&lt;/b&gt;" style="swimlane;fontStyle=1;align=center;verticalAlign=top;childLayout=stackLayout;horizontal=1;startSize=48;horizontalStack=0;resizeParent=1;resizeParentMax=0;resizeLast=0;collapsible=1;marginBottom=0;whiteSpace=wrap;html=1;" parent="1" vertex="1">
          <mxGeometry x="972" y="2031" width="402" height="265" as="geometry" />
        </mxCell>
        <mxCell id="2egfwh6IOahEDaefVFSt-38" value="&lt;p style=&quot;border-color: var(--border-color); margin: 0px 0px 0px 4px;&quot;&gt;+ Hidden: bool&lt;/p&gt;&lt;p style=&quot;border-color: var(--border-color); margin: 0px 0px 0px 4px;&quot;&gt;- Register_Action: Acton&amp;lt;object&amp;gt;&lt;/p&gt;&lt;p style=&quot;border-color: var(--border-color); margin: 0px 0px 0px 4px;&quot;&gt;- Register_Predicate: Predicate&amp;lt;object&amp;gt;&lt;/p&gt;&lt;p style=&quot;border-color: var(--border-color); margin: 0px 0px 0px 4px;&quot;&gt;+ GoTo_SignIn: ICommand&lt;/p&gt;&lt;p style=&quot;border-color: var(--border-color); margin: 0px 0px 0px 4px;&quot;&gt;+ Hide: RelayCommand&lt;/p&gt;&lt;p style=&quot;border-color: var(--border-color); margin: 0px 0px 0px 4px;&quot;&gt;+ Login: String&lt;/p&gt;&lt;p style=&quot;border-color: var(--border-color); margin: 0px 0px 0px 4px;&quot;&gt;+ Name: String&lt;/p&gt;&lt;p style=&quot;border-color: var(--border-color); margin: 0px 0px 0px 4px;&quot;&gt;+ Password: String&lt;/p&gt;&lt;p style=&quot;border-color: var(--border-color); margin: 0px 0px 0px 4px;&quot;&gt;+ PhoneNumber: String&lt;/p&gt;&lt;p style=&quot;border-color: var(--border-color); margin: 0px 0px 0px 4px;&quot;&gt;+ Surname: String&lt;/p&gt;" style="text;strokeColor=none;fillColor=none;align=left;verticalAlign=top;spacingLeft=4;spacingRight=4;overflow=hidden;rotatable=0;points=[[0,0.5],[1,0.5]];portConstraint=eastwest;whiteSpace=wrap;html=1;" parent="2egfwh6IOahEDaefVFSt-37" vertex="1">
          <mxGeometry y="48" width="402" height="159" as="geometry" />
        </mxCell>
        <mxCell id="2egfwh6IOahEDaefVFSt-39" value="" style="line;strokeWidth=1;fillColor=none;align=left;verticalAlign=middle;spacingTop=-1;spacingLeft=3;spacingRight=3;rotatable=0;labelPosition=right;points=[];portConstraint=eastwest;strokeColor=inherit;" parent="2egfwh6IOahEDaefVFSt-37" vertex="1">
          <mxGeometry y="207" width="402" height="8" as="geometry" />
        </mxCell>
        <mxCell id="2egfwh6IOahEDaefVFSt-40" value="- Hide_Button_Click(obj: object): void&lt;br&gt;+ Register(obj: object): void" style="text;strokeColor=none;fillColor=none;align=left;verticalAlign=top;spacingLeft=4;spacingRight=4;overflow=hidden;rotatable=0;points=[[0,0.5],[1,0.5]];portConstraint=eastwest;whiteSpace=wrap;html=1;" parent="2egfwh6IOahEDaefVFSt-37" vertex="1">
          <mxGeometry y="215" width="402" height="50" as="geometry" />
        </mxCell>
        <mxCell id="2egfwh6IOahEDaefVFSt-41" value="&lt;p style=&quot;margin:0px;margin-top:4px;text-align:center;&quot;&gt;&lt;i&gt;&amp;lt;&amp;lt;Class&amp;gt;&amp;gt;&lt;/i&gt;&lt;br&gt;&lt;b&gt;Admin_Page_SetPrice_ViewModel&lt;/b&gt;&lt;/p&gt;&lt;hr size=&quot;1&quot;&gt;&lt;p style=&quot;margin:0px;margin-left:4px;&quot;&gt;+ XValue: double&lt;/p&gt;" style="verticalAlign=top;align=left;overflow=fill;fontSize=12;fontFamily=Helvetica;html=1;rounded=0;shadow=0;comic=0;labelBackgroundColor=none;strokeWidth=1" parent="1" vertex="1">
          <mxGeometry x="628" y="1838" width="258" height="69" as="geometry" />
        </mxCell>
        <mxCell id="2egfwh6IOahEDaefVFSt-42" value="&lt;i style=&quot;border-color: var(--border-color); font-weight: 400;&quot;&gt;&amp;lt;&amp;lt;Class&amp;gt;&amp;gt;&lt;/i&gt;&lt;br style=&quot;border-color: var(--border-color); font-weight: 400;&quot;&gt;&lt;b style=&quot;border-color: var(--border-color);&quot;&gt;TakeCarVIewModel&lt;/b&gt;" style="swimlane;fontStyle=1;align=center;verticalAlign=top;childLayout=stackLayout;horizontal=1;startSize=48;horizontalStack=0;resizeParent=1;resizeParentMax=0;resizeLast=0;collapsible=1;marginBottom=0;whiteSpace=wrap;html=1;" parent="1" vertex="1">
          <mxGeometry x="1673" y="1427" width="402" height="160" as="geometry" />
        </mxCell>
        <mxCell id="2egfwh6IOahEDaefVFSt-43" value="&lt;p style=&quot;border-color: var(--border-color); margin: 0px 0px 0px 4px;&quot;&gt;+ cars: ObresvableCollection&amp;lt;String&amp;gt;&lt;/p&gt;&lt;p style=&quot;border-color: var(--border-color); margin: 0px 0px 0px 4px;&quot;&gt;+ MarkModel: String&lt;/p&gt;&lt;p style=&quot;border-color: var(--border-color); margin: 0px 0px 0px 4px;&quot;&gt;+ Choose_Command: RelayCommand&lt;/p&gt;" style="text;strokeColor=none;fillColor=none;align=left;verticalAlign=top;spacingLeft=4;spacingRight=4;overflow=hidden;rotatable=0;points=[[0,0.5],[1,0.5]];portConstraint=eastwest;whiteSpace=wrap;html=1;" parent="2egfwh6IOahEDaefVFSt-42" vertex="1">
          <mxGeometry y="48" width="402" height="60" as="geometry" />
        </mxCell>
        <mxCell id="2egfwh6IOahEDaefVFSt-44" value="" style="line;strokeWidth=1;fillColor=none;align=left;verticalAlign=middle;spacingTop=-1;spacingLeft=3;spacingRight=3;rotatable=0;labelPosition=right;points=[];portConstraint=eastwest;strokeColor=inherit;" parent="2egfwh6IOahEDaefVFSt-42" vertex="1">
          <mxGeometry y="108" width="402" height="8" as="geometry" />
        </mxCell>
        <mxCell id="2egfwh6IOahEDaefVFSt-45" value="- Close(obj: object): void&lt;br&gt;+ setCar(): void" style="text;strokeColor=none;fillColor=none;align=left;verticalAlign=top;spacingLeft=4;spacingRight=4;overflow=hidden;rotatable=0;points=[[0,0.5],[1,0.5]];portConstraint=eastwest;whiteSpace=wrap;html=1;" parent="2egfwh6IOahEDaefVFSt-42" vertex="1">
          <mxGeometry y="116" width="402" height="44" as="geometry" />
        </mxCell>
        <mxCell id="2egfwh6IOahEDaefVFSt-50" value="&lt;p style=&quot;margin:0px;margin-top:4px;text-align:center;&quot;&gt;&lt;i&gt;&amp;lt;&amp;lt;Class&amp;gt;&amp;gt;&lt;/i&gt;&lt;br&gt;&lt;b&gt;Admin_CarPage_UserControl&lt;/b&gt;&lt;/p&gt;&lt;hr size=&quot;1&quot;&gt;&lt;p style=&quot;margin:0px;margin-left:4px;&quot;&gt;+ Admin_CarPage_UserControl()&lt;/p&gt;" style="verticalAlign=top;align=left;overflow=fill;fontSize=12;fontFamily=Helvetica;html=1;rounded=0;shadow=0;comic=0;labelBackgroundColor=none;strokeWidth=1" parent="1" vertex="1">
          <mxGeometry x="-408" y="343" width="258" height="69" as="geometry" />
        </mxCell>
        <mxCell id="2egfwh6IOahEDaefVFSt-51" value="&lt;p style=&quot;margin:0px;margin-top:4px;text-align:center;&quot;&gt;&lt;i&gt;&amp;lt;&amp;lt;Class&amp;gt;&amp;gt;&lt;/i&gt;&lt;br&gt;&lt;b&gt;Admin_Page_SetPrice_UserControl&lt;/b&gt;&lt;/p&gt;&lt;hr size=&quot;1&quot;&gt;&lt;p style=&quot;margin:0px;margin-left:4px;&quot;&gt;+ Admin_Page_SetPrice_UserControl()&lt;/p&gt;" style="verticalAlign=top;align=left;overflow=fill;fontSize=12;fontFamily=Helvetica;html=1;rounded=0;shadow=0;comic=0;labelBackgroundColor=none;strokeWidth=1" parent="1" vertex="1">
          <mxGeometry x="-57" y="470" width="258" height="69" as="geometry" />
        </mxCell>
        <mxCell id="2egfwh6IOahEDaefVFSt-53" value="&lt;i style=&quot;border-color: var(--border-color); font-weight: 400;&quot;&gt;&amp;lt;&amp;lt;Class&amp;gt;&amp;gt;&lt;/i&gt;&lt;br style=&quot;border-color: var(--border-color); font-weight: 400;&quot;&gt;&lt;b style=&quot;border-color: var(--border-color);&quot;&gt;EvaluationWindow&lt;/b&gt;" style="swimlane;fontStyle=1;align=center;verticalAlign=top;childLayout=stackLayout;horizontal=1;startSize=48;horizontalStack=0;resizeParent=1;resizeParentMax=0;resizeLast=0;collapsible=1;marginBottom=0;whiteSpace=wrap;html=1;" parent="1" vertex="1">
          <mxGeometry x="10" y="652" width="319" height="174" as="geometry" />
        </mxCell>
        <mxCell id="2egfwh6IOahEDaefVFSt-54" value="&lt;p style=&quot;border-color: var(--border-color); margin: 0px 0px 0px 4px;&quot;&gt;+ star_count: Int&lt;/p&gt;" style="text;strokeColor=none;fillColor=none;align=left;verticalAlign=top;spacingLeft=4;spacingRight=4;overflow=hidden;rotatable=0;points=[[0,0.5],[1,0.5]];portConstraint=eastwest;whiteSpace=wrap;html=1;" parent="2egfwh6IOahEDaefVFSt-53" vertex="1">
          <mxGeometry y="48" width="319" height="28" as="geometry" />
        </mxCell>
        <mxCell id="2egfwh6IOahEDaefVFSt-55" value="" style="line;strokeWidth=1;fillColor=none;align=left;verticalAlign=middle;spacingTop=-1;spacingLeft=3;spacingRight=3;rotatable=0;labelPosition=right;points=[];portConstraint=eastwest;strokeColor=inherit;" parent="2egfwh6IOahEDaefVFSt-53" vertex="1">
          <mxGeometry y="76" width="319" height="8" as="geometry" />
        </mxCell>
        <mxCell id="2egfwh6IOahEDaefVFSt-56" value="- Delete_Button_MouseRightButtonDown(sender: object, e:System.Windows.Input.MouseButtonEventArgs): void&lt;br&gt;+ EvaluationWindow()&lt;br&gt;- Star_Button_MouseDoubleClick(sender: object, e:System.Windows.Input.MouseButtonEventArgs): void" style="text;strokeColor=none;fillColor=none;align=left;verticalAlign=top;spacingLeft=4;spacingRight=4;overflow=hidden;rotatable=0;points=[[0,0.5],[1,0.5]];portConstraint=eastwest;whiteSpace=wrap;html=1;" parent="2egfwh6IOahEDaefVFSt-53" vertex="1">
          <mxGeometry y="84" width="319" height="90" as="geometry" />
        </mxCell>
        <mxCell id="2egfwh6IOahEDaefVFSt-57" value="&lt;p style=&quot;margin:0px;margin-top:4px;text-align:center;&quot;&gt;&lt;i&gt;&amp;lt;&amp;lt;Class&amp;gt;&amp;gt;&lt;/i&gt;&lt;br&gt;&lt;b&gt;TakeCar&lt;/b&gt;&lt;/p&gt;&lt;hr size=&quot;1&quot;&gt;&lt;p style=&quot;margin:0px;margin-left:4px;&quot;&gt;+ TakeCar()&lt;/p&gt;" style="verticalAlign=top;align=left;overflow=fill;fontSize=12;fontFamily=Helvetica;html=1;rounded=0;shadow=0;comic=0;labelBackgroundColor=none;strokeWidth=1" parent="1" vertex="1">
          <mxGeometry x="-396" y="470" width="258" height="69" as="geometry" />
        </mxCell>
        <mxCell id="2egfwh6IOahEDaefVFSt-58" value="&lt;i style=&quot;border-color: var(--border-color); font-weight: 400;&quot;&gt;&amp;lt;&amp;lt;Class&amp;gt;&amp;gt;&lt;/i&gt;&lt;br style=&quot;border-color: var(--border-color); font-weight: 400;&quot;&gt;&lt;b style=&quot;border-color: var(--border-color);&quot;&gt;User_Page_UserControl&lt;/b&gt;" style="swimlane;fontStyle=1;align=center;verticalAlign=top;childLayout=stackLayout;horizontal=1;startSize=48;horizontalStack=0;resizeParent=1;resizeParentMax=0;resizeLast=0;collapsible=1;marginBottom=0;whiteSpace=wrap;html=1;" parent="1" vertex="1">
          <mxGeometry x="-396" y="652" width="319" height="173" as="geometry" />
        </mxCell>
        <mxCell id="2egfwh6IOahEDaefVFSt-59" value="&lt;p style=&quot;border-color: var(--border-color); margin: 0px 0px 0px 4px;&quot;&gt;+ From_Location: Location&lt;/p&gt;&lt;p style=&quot;border-color: var(--border-color); margin: 0px 0px 0px 4px;&quot;&gt;+ To_Location: Location&lt;/p&gt;" style="text;strokeColor=none;fillColor=none;align=left;verticalAlign=top;spacingLeft=4;spacingRight=4;overflow=hidden;rotatable=0;points=[[0,0.5],[1,0.5]];portConstraint=eastwest;whiteSpace=wrap;html=1;" parent="2egfwh6IOahEDaefVFSt-58" vertex="1">
          <mxGeometry y="48" width="319" height="43" as="geometry" />
        </mxCell>
        <mxCell id="2egfwh6IOahEDaefVFSt-60" value="" style="line;strokeWidth=1;fillColor=none;align=left;verticalAlign=middle;spacingTop=-1;spacingLeft=3;spacingRight=3;rotatable=0;labelPosition=right;points=[];portConstraint=eastwest;strokeColor=inherit;" parent="2egfwh6IOahEDaefVFSt-58" vertex="1">
          <mxGeometry y="91" width="319" height="8" as="geometry" />
        </mxCell>
        <mxCell id="2egfwh6IOahEDaefVFSt-61" value="- From_Textbox_GetFocus(): void&lt;br&gt;- Map_MouseDoubleClick(): void&lt;br&gt;- To_Textbox_GetFocus(): void&lt;br&gt;+ User_Page_UserControl()" style="text;strokeColor=none;fillColor=none;align=left;verticalAlign=top;spacingLeft=4;spacingRight=4;overflow=hidden;rotatable=0;points=[[0,0.5],[1,0.5]];portConstraint=eastwest;whiteSpace=wrap;html=1;" parent="2egfwh6IOahEDaefVFSt-58" vertex="1">
          <mxGeometry y="99" width="319" height="74" as="geometry" />
        </mxCell>
        <mxCell id="2egfwh6IOahEDaefVFSt-62" value="&lt;p style=&quot;margin:0px;margin-top:4px;text-align:center;&quot;&gt;&lt;i&gt;&amp;lt;&amp;lt;Class&amp;gt;&amp;gt;&lt;/i&gt;&lt;br&gt;&lt;b&gt;Admin_Page_AddCar_UserControl&lt;/b&gt;&lt;/p&gt;&lt;hr size=&quot;1&quot;&gt;&lt;p style=&quot;margin:0px;margin-left:4px;&quot;&gt;+ Admin_Page_AddCar_UserControl()&lt;/p&gt;" style="verticalAlign=top;align=left;overflow=fill;fontSize=12;fontFamily=Helvetica;html=1;rounded=0;shadow=0;comic=0;labelBackgroundColor=none;strokeWidth=1" parent="1" vertex="1">
          <mxGeometry x="262" y="473" width="258" height="69" as="geometry" />
        </mxCell>
        <mxCell id="2egfwh6IOahEDaefVFSt-63" value="&lt;p style=&quot;margin:0px;margin-top:4px;text-align:center;&quot;&gt;&lt;i&gt;&amp;lt;&amp;lt;Class&amp;gt;&amp;gt;&lt;/i&gt;&lt;br&gt;&lt;b&gt;Admin_Page_AddDriver_UserControl&lt;/b&gt;&lt;/p&gt;&lt;hr size=&quot;1&quot;&gt;&lt;p style=&quot;margin:0px;margin-left:4px;&quot;&gt;+ Admin_Page_AddDriver_UserControl()&lt;/p&gt;" style="verticalAlign=top;align=left;overflow=fill;fontSize=12;fontFamily=Helvetica;html=1;rounded=0;shadow=0;comic=0;labelBackgroundColor=none;strokeWidth=1" parent="1" vertex="1">
          <mxGeometry x="271" y="343" width="258" height="69" as="geometry" />
        </mxCell>
        <mxCell id="2egfwh6IOahEDaefVFSt-64" value="&lt;p style=&quot;margin:0px;margin-top:4px;text-align:center;&quot;&gt;&lt;i&gt;&amp;lt;&amp;lt;Class&amp;gt;&amp;gt;&lt;/i&gt;&lt;br&gt;&lt;b&gt;Admin_Page_AddCar_UserControl&lt;/b&gt;&lt;/p&gt;&lt;hr size=&quot;1&quot;&gt;&lt;p style=&quot;margin:0px;margin-left:4px;&quot;&gt;+ Admin_Page_AddCar_UserControl()&lt;/p&gt;" style="verticalAlign=top;align=left;overflow=fill;fontSize=12;fontFamily=Helvetica;html=1;rounded=0;shadow=0;comic=0;labelBackgroundColor=none;strokeWidth=1" parent="1" vertex="1">
          <mxGeometry x="-77" y="340" width="258" height="69" as="geometry" />
        </mxCell>
        <mxCell id="2egfwh6IOahEDaefVFSt-69" value="&lt;p style=&quot;margin:0px;margin-top:4px;text-align:center;&quot;&gt;&lt;i&gt;&amp;lt;&amp;lt;Class&amp;gt;&amp;gt;&lt;/i&gt;&lt;br&gt;&lt;b&gt;Admin_Page_UserControl&lt;/b&gt;&lt;/p&gt;&lt;hr size=&quot;1&quot;&gt;&lt;p style=&quot;margin:0px;margin-left:4px;&quot;&gt;+ Admin_Page_UserControl()&lt;/p&gt;&lt;p style=&quot;margin:0px;margin-left:4px;&quot;&gt;- ButtonCloseMenu_Click(): void&lt;/p&gt;&lt;p style=&quot;margin:0px;margin-left:4px;&quot;&gt;- ButtonOpenMenu_Click(): void&lt;/p&gt;" style="verticalAlign=top;align=left;overflow=fill;fontSize=12;fontFamily=Helvetica;html=1;rounded=0;shadow=0;comic=0;labelBackgroundColor=none;strokeWidth=1" parent="1" vertex="1">
          <mxGeometry x="564" y="461" width="258" height="98" as="geometry" />
        </mxCell>
        <mxCell id="2egfwh6IOahEDaefVFSt-70" value="&lt;p style=&quot;margin:0px;margin-top:4px;text-align:center;&quot;&gt;&lt;i&gt;&amp;lt;&amp;lt;Class&amp;gt;&amp;gt;&lt;/i&gt;&lt;br&gt;&lt;b&gt;History_Page_UserControl&lt;/b&gt;&lt;/p&gt;&lt;hr size=&quot;1&quot;&gt;&lt;p style=&quot;margin:0px;margin-left:4px;&quot;&gt;+ History_Page_UserControl()&lt;/p&gt;" style="verticalAlign=top;align=left;overflow=fill;fontSize=12;fontFamily=Helvetica;html=1;rounded=0;shadow=0;comic=0;labelBackgroundColor=none;strokeWidth=1" parent="1" vertex="1">
          <mxGeometry x="-400" y="221" width="258" height="69" as="geometry" />
        </mxCell>
        <mxCell id="2egfwh6IOahEDaefVFSt-71" value="&lt;p style=&quot;margin:0px;margin-top:4px;text-align:center;&quot;&gt;&lt;i&gt;&amp;lt;&amp;lt;Class&amp;gt;&amp;gt;&lt;/i&gt;&lt;br&gt;&lt;b&gt;Admin_Page_Company_Statistic_UserControl&lt;/b&gt;&lt;/p&gt;&lt;hr size=&quot;1&quot;&gt;&lt;p style=&quot;margin:0px;margin-left:4px;&quot;&gt;+ Admin_Page_Company_Statistic_UserControl()&lt;/p&gt;" style="verticalAlign=top;align=left;overflow=fill;fontSize=12;fontFamily=Helvetica;html=1;rounded=0;shadow=0;comic=0;labelBackgroundColor=none;strokeWidth=1" parent="1" vertex="1">
          <mxGeometry x="-80" y="221" width="293" height="69" as="geometry" />
        </mxCell>
        <mxCell id="2egfwh6IOahEDaefVFSt-72" value="&lt;p style=&quot;margin:0px;margin-top:4px;text-align:center;&quot;&gt;&lt;i&gt;&amp;lt;&amp;lt;Class&amp;gt;&amp;gt;&lt;/i&gt;&lt;br&gt;&lt;b&gt;Admin_UserPage_UserControl&lt;/b&gt;&lt;/p&gt;&lt;hr size=&quot;1&quot;&gt;&lt;p style=&quot;margin:0px;margin-left:4px;&quot;&gt;+ Admin_UserPage_UserControl()&lt;/p&gt;&lt;p style=&quot;margin:0px;margin-left:4px;&quot;&gt;- CellChanged(): void&lt;/p&gt;" style="verticalAlign=top;align=left;overflow=fill;fontSize=12;fontFamily=Helvetica;html=1;rounded=0;shadow=0;comic=0;labelBackgroundColor=none;strokeWidth=1" parent="1" vertex="1">
          <mxGeometry x="564" y="79" width="293" height="82" as="geometry" />
        </mxCell>
        <mxCell id="2egfwh6IOahEDaefVFSt-73" value="&lt;p style=&quot;margin:0px;margin-top:4px;text-align:center;&quot;&gt;&lt;i&gt;&amp;lt;&amp;lt;Class&amp;gt;&amp;gt;&lt;/i&gt;&lt;br&gt;&lt;b&gt;Login_Page_UserControl&lt;/b&gt;&lt;/p&gt;&lt;hr size=&quot;1&quot;&gt;&lt;p style=&quot;margin:0px;margin-left:4px;&quot;&gt;+ Login_Page_UserControl()&lt;/p&gt;&lt;p style=&quot;margin:0px;margin-left:4px;&quot;&gt;- Toggle_Checked(): void&lt;/p&gt;&lt;p style=&quot;margin:0px;margin-left:4px;&quot;&gt;- Toggle_UnChecked(): void&lt;/p&gt;" style="verticalAlign=top;align=left;overflow=fill;fontSize=12;fontFamily=Helvetica;html=1;rounded=0;shadow=0;comic=0;labelBackgroundColor=none;strokeWidth=1" parent="1" vertex="1">
          <mxGeometry x="253.5" y="63" width="293" height="96" as="geometry" />
        </mxCell>
        <mxCell id="2egfwh6IOahEDaefVFSt-74" value="&lt;p style=&quot;margin:0px;margin-top:4px;text-align:center;&quot;&gt;&lt;i&gt;&amp;lt;&amp;lt;Class&amp;gt;&amp;gt;&lt;/i&gt;&lt;br&gt;&lt;b&gt;UserWindow&lt;/b&gt;&lt;/p&gt;&lt;hr size=&quot;1&quot;&gt;&lt;p style=&quot;margin:0px;margin-left:4px;&quot;&gt;+ UserWindow()&lt;/p&gt;" style="verticalAlign=top;align=left;overflow=fill;fontSize=12;fontFamily=Helvetica;html=1;rounded=0;shadow=0;comic=0;labelBackgroundColor=none;strokeWidth=1" parent="1" vertex="1">
          <mxGeometry x="569" y="340" width="258" height="69" as="geometry" />
        </mxCell>
        <mxCell id="2egfwh6IOahEDaefVFSt-75" value="&lt;p style=&quot;margin:0px;margin-top:4px;text-align:center;&quot;&gt;&lt;i&gt;&amp;lt;&amp;lt;Class&amp;gt;&amp;gt;&lt;/i&gt;&lt;br&gt;&lt;b&gt;Completed_Window&lt;/b&gt;&lt;/p&gt;&lt;hr size=&quot;1&quot;&gt;&lt;p style=&quot;margin:0px;margin-left:4px;&quot;&gt;+ Completed_Window()&lt;/p&gt;&lt;p style=&quot;margin:0px;margin-left:4px;&quot;&gt;- CommandBinding_CanExecute(): void&lt;/p&gt;&lt;p style=&quot;margin:0px;margin-left:4px;&quot;&gt;- CommandBinding_Executed_Close(): void&lt;br&gt;&lt;/p&gt;&lt;p style=&quot;margin:0px;margin-left:4px;&quot;&gt;- CommandBinding_Executed_Maximize(): void&lt;br&gt;&lt;/p&gt;&lt;p style=&quot;margin:0px;margin-left:4px;&quot;&gt;- CommandBinding_Executed_Minimize(): void&lt;br&gt;&lt;/p&gt;&lt;p style=&quot;margin:0px;margin-left:4px;&quot;&gt;- CommandBinding_Executed_Restore(): void&lt;br&gt;&lt;/p&gt;" style="verticalAlign=top;align=left;overflow=fill;fontSize=12;fontFamily=Helvetica;html=1;rounded=0;shadow=0;comic=0;labelBackgroundColor=none;strokeWidth=1" parent="1" vertex="1">
          <mxGeometry x="-77" y="39" width="265" height="140" as="geometry" />
        </mxCell>
        <mxCell id="2egfwh6IOahEDaefVFSt-76" value="&lt;p style=&quot;margin:0px;margin-top:4px;text-align:center;&quot;&gt;&lt;i&gt;&amp;lt;&amp;lt;Class&amp;gt;&amp;gt;&lt;/i&gt;&lt;br&gt;&lt;b&gt;MainWindow&lt;/b&gt;&lt;/p&gt;&lt;hr size=&quot;1&quot;&gt;&lt;p style=&quot;margin:0px;margin-left:4px;&quot;&gt;+ MainWindow()&lt;/p&gt;" style="verticalAlign=top;align=left;overflow=fill;fontSize=12;fontFamily=Helvetica;html=1;rounded=0;shadow=0;comic=0;labelBackgroundColor=none;strokeWidth=1" parent="1" vertex="1">
          <mxGeometry x="266" y="218" width="258" height="69" as="geometry" />
        </mxCell>
        <mxCell id="2egfwh6IOahEDaefVFSt-77" value="&lt;p style=&quot;margin:0px;margin-top:4px;text-align:center;&quot;&gt;&lt;i&gt;&amp;lt;&amp;lt;Class&amp;gt;&amp;gt;&lt;/i&gt;&lt;br&gt;&lt;b&gt;Admin_Page_DriverOnMap_UserControl&lt;/b&gt;&lt;/p&gt;&lt;hr size=&quot;1&quot;&gt;&lt;p style=&quot;margin:0px;margin-left:4px;&quot;&gt;+ Admin_Page_DriverOnMap_UserControl()&lt;/p&gt;" style="verticalAlign=top;align=left;overflow=fill;fontSize=12;fontFamily=Helvetica;html=1;rounded=0;shadow=0;comic=0;labelBackgroundColor=none;strokeWidth=1" parent="1" vertex="1">
          <mxGeometry x="-408" y="114" width="258" height="69" as="geometry" />
        </mxCell>
        <mxCell id="2egfwh6IOahEDaefVFSt-78" value="&lt;p style=&quot;margin:0px;margin-top:4px;text-align:center;&quot;&gt;&lt;i&gt;&amp;lt;&amp;lt;Class&amp;gt;&amp;gt;&lt;/i&gt;&lt;br&gt;&lt;b&gt;Error_Window&lt;/b&gt;&lt;/p&gt;&lt;hr size=&quot;1&quot;&gt;&lt;p style=&quot;margin:0px;margin-left:4px;&quot;&gt;+ Error_Window()&lt;/p&gt;" style="verticalAlign=top;align=left;overflow=fill;fontSize=12;fontFamily=Helvetica;html=1;rounded=0;shadow=0;comic=0;labelBackgroundColor=none;strokeWidth=1" parent="1" vertex="1">
          <mxGeometry x="577" y="212" width="258" height="69" as="geometry" />
        </mxCell>
        <mxCell id="2egfwh6IOahEDaefVFSt-79" value="&lt;p style=&quot;margin:0px;margin-top:4px;text-align:center;&quot;&gt;&lt;i&gt;&amp;lt;&amp;lt;Class&amp;gt;&amp;gt;&lt;/i&gt;&lt;br&gt;&lt;b&gt;Register_Page_UserControl&lt;/b&gt;&lt;/p&gt;&lt;hr size=&quot;1&quot;&gt;&lt;p style=&quot;margin:0px;margin-left:4px;&quot;&gt;+ Register_Page_UserControl()&lt;/p&gt;&lt;p style=&quot;margin:0px;margin-left:4px;&quot;&gt;+ TaskAsync(): Task&lt;/p&gt;" style="verticalAlign=top;align=left;overflow=fill;fontSize=12;fontFamily=Helvetica;html=1;rounded=0;shadow=0;comic=0;labelBackgroundColor=none;strokeWidth=1" parent="1" vertex="1">
          <mxGeometry x="-396" y="-31" width="258" height="83" as="geometry" />
        </mxCell>
        <mxCell id="2egfwh6IOahEDaefVFSt-101" style="edgeStyle=orthogonalEdgeStyle;rounded=0;orthogonalLoop=1;jettySize=auto;html=1;" parent="1" source="2egfwh6IOahEDaefVFSt-80" target="2egfwh6IOahEDaefVFSt-91" edge="1">
          <mxGeometry relative="1" as="geometry">
            <Array as="points">
              <mxPoint x="1724" y="1257" />
              <mxPoint x="1724" y="1257" />
            </Array>
          </mxGeometry>
        </mxCell>
        <mxCell id="2egfwh6IOahEDaefVFSt-102" value="&lt;span style=&quot;font-size: 25px;&quot;&gt;Microsoft Maps API&lt;/span&gt;" style="edgeLabel;html=1;align=center;verticalAlign=middle;resizable=0;points=[];" parent="2egfwh6IOahEDaefVFSt-101" vertex="1" connectable="0">
          <mxGeometry x="0.0446" y="-2" relative="1" as="geometry">
            <mxPoint x="116" y="4" as="offset" />
          </mxGeometry>
        </mxCell>
        <mxCell id="2egfwh6IOahEDaefVFSt-80" value="&lt;p style=&quot;margin:0px;margin-top:4px;text-align:center;&quot;&gt;&lt;i&gt;&amp;lt;&amp;lt;Class&amp;gt;&amp;gt;&lt;/i&gt;&lt;br&gt;&lt;b&gt;IpInfo&lt;/b&gt;&lt;/p&gt;&lt;hr size=&quot;1&quot;&gt;&lt;p style=&quot;margin:0px;margin-left:4px;&quot;&gt;+ City: String&lt;/p&gt;&lt;p style=&quot;margin:0px;margin-left:4px;&quot;&gt;+ County: String&lt;/p&gt;&lt;p style=&quot;margin:0px;margin-left:4px;&quot;&gt;+ Hostname: String&lt;/p&gt;&lt;p style=&quot;margin:0px;margin-left:4px;&quot;&gt;+ Ip: String&lt;/p&gt;&lt;p style=&quot;margin:0px;margin-left:4px;&quot;&gt;+ Loc: String&lt;/p&gt;&lt;p style=&quot;margin:0px;margin-left:4px;&quot;&gt;+ Org: String&lt;/p&gt;&lt;p style=&quot;margin:0px;margin-left:4px;&quot;&gt;+ Postal: String&lt;/p&gt;&lt;p style=&quot;margin:0px;margin-left:4px;&quot;&gt;+ Region: String&lt;/p&gt;" style="verticalAlign=top;align=left;overflow=fill;fontSize=12;fontFamily=Helvetica;html=1;rounded=0;shadow=0;comic=0;labelBackgroundColor=none;strokeWidth=1" parent="1" vertex="1">
          <mxGeometry x="1595" y="913" width="258" height="166" as="geometry" />
        </mxCell>
        <mxCell id="2egfwh6IOahEDaefVFSt-103" style="edgeStyle=orthogonalEdgeStyle;rounded=0;orthogonalLoop=1;jettySize=auto;html=1;" parent="1" source="2egfwh6IOahEDaefVFSt-81" target="2egfwh6IOahEDaefVFSt-91" edge="1">
          <mxGeometry relative="1" as="geometry">
            <Array as="points">
              <mxPoint x="1254" y="1243" />
              <mxPoint x="1254" y="1243" />
            </Array>
          </mxGeometry>
        </mxCell>
        <mxCell id="2egfwh6IOahEDaefVFSt-104" value="&lt;font style=&quot;font-size: 25px;&quot;&gt;-Mediator&lt;/font&gt;" style="edgeLabel;html=1;align=center;verticalAlign=middle;resizable=0;points=[];" parent="2egfwh6IOahEDaefVFSt-103" vertex="1" connectable="0">
          <mxGeometry x="0.1297" relative="1" as="geometry">
            <mxPoint x="56" y="-2" as="offset" />
          </mxGeometry>
        </mxCell>
        <mxCell id="2egfwh6IOahEDaefVFSt-81" value="&lt;p style=&quot;margin:0px;margin-top:4px;text-align:center;&quot;&gt;&lt;i&gt;&amp;lt;&amp;lt;Class&amp;gt;&amp;gt;&lt;/i&gt;&lt;br&gt;&lt;b&gt;Mediator&lt;/b&gt;&lt;/p&gt;&lt;hr size=&quot;1&quot;&gt;&lt;p style=&quot;margin:0px;margin-left:4px;&quot;&gt;+ Notify(token: string,&amp;nbsp; args: object = null): void&lt;/p&gt;&lt;p style=&quot;margin:0px;margin-left:4px;&quot;&gt;+ Subscribe(token: string, callback:&lt;/p&gt;System.Action&amp;lt;object&amp;gt;): void&lt;br&gt;&amp;nbsp;+ Unsubscribe(token: string, callback:&lt;br&gt;System.Action&amp;lt;object&amp;gt;): void" style="verticalAlign=top;align=left;overflow=fill;fontSize=12;fontFamily=Helvetica;html=1;rounded=0;shadow=0;comic=0;labelBackgroundColor=none;strokeWidth=1" parent="1" vertex="1">
          <mxGeometry x="1088" y="952" width="332" height="127" as="geometry" />
        </mxCell>
        <mxCell id="2egfwh6IOahEDaefVFSt-82" value="&lt;p style=&quot;margin:0px;margin-top:4px;text-align:center;&quot;&gt;&lt;i&gt;&amp;lt;&amp;lt;Class&amp;gt;&amp;gt;&lt;/i&gt;&lt;br&gt;&lt;b&gt;Departure&lt;/b&gt;&lt;/p&gt;&lt;hr size=&quot;1&quot;&gt;+ Cost: String&lt;br&gt;+ Date: DateTime&lt;br&gt;+ Distance: float&lt;br&gt;+ Duraction: TimeSpan&lt;br&gt;+ EndTime: DateTime&lt;br&gt;+ StartTime: DateTime&lt;br&gt;&lt;p style=&quot;margin:0px;margin-left:4px;&quot;&gt;&lt;/p&gt;" style="verticalAlign=top;align=left;overflow=fill;fontSize=12;fontFamily=Helvetica;html=1;rounded=0;shadow=0;comic=0;labelBackgroundColor=none;strokeWidth=1" parent="1" vertex="1">
          <mxGeometry x="2949" y="1538" width="159" height="143" as="geometry" />
        </mxCell>
        <mxCell id="2egfwh6IOahEDaefVFSt-83" value="&lt;p style=&quot;margin:0px;margin-top:4px;text-align:center;&quot;&gt;&lt;i&gt;&amp;lt;&amp;lt;Class&amp;gt;&amp;gt;&lt;/i&gt;&lt;br&gt;&lt;b&gt;Month&lt;/b&gt;&lt;/p&gt;&lt;hr size=&quot;1&quot;&gt;+ CompareRate: String&lt;br&gt;+ Date: DateTime&lt;br&gt;+ Total: String&lt;br&gt;&lt;p style=&quot;margin:0px;margin-left:4px;&quot;&gt;&lt;/p&gt;" style="verticalAlign=top;align=left;overflow=fill;fontSize=12;fontFamily=Helvetica;html=1;rounded=0;shadow=0;comic=0;labelBackgroundColor=none;strokeWidth=1" parent="1" vertex="1">
          <mxGeometry x="2952" y="1699" width="147" height="99" as="geometry" />
        </mxCell>
        <mxCell id="2egfwh6IOahEDaefVFSt-84" value="&lt;p style=&quot;margin:0px;margin-top:4px;text-align:center;&quot;&gt;&lt;i&gt;&amp;lt;&amp;lt;Class&amp;gt;&amp;gt;&lt;/i&gt;&lt;br&gt;&lt;b&gt;Month&lt;/b&gt;&lt;/p&gt;&lt;hr size=&quot;1&quot;&gt;+ DMY: String&lt;br&gt;+ Precent: Double&lt;br&gt;+ TotalProfit: Double&lt;br&gt;&lt;p style=&quot;margin:0px;margin-left:4px;&quot;&gt;&lt;/p&gt;" style="verticalAlign=top;align=left;overflow=fill;fontSize=12;fontFamily=Helvetica;html=1;rounded=0;shadow=0;comic=0;labelBackgroundColor=none;strokeWidth=1" parent="1" vertex="1">
          <mxGeometry x="3120" y="1699" width="147" height="99" as="geometry" />
        </mxCell>
        <mxCell id="2egfwh6IOahEDaefVFSt-85" value="&lt;p style=&quot;margin:0px;margin-top:4px;text-align:center;&quot;&gt;&lt;i&gt;&amp;lt;&amp;lt;Class&amp;gt;&amp;gt;&lt;/i&gt;&lt;br&gt;&lt;b&gt;Person&lt;/b&gt;&lt;/p&gt;&lt;hr size=&quot;1&quot;&gt;+ Password: String&lt;br&gt;+ Username: String&lt;br&gt;&lt;p style=&quot;margin:0px;margin-left:4px;&quot;&gt;&lt;/p&gt;" style="verticalAlign=top;align=left;overflow=fill;fontSize=12;fontFamily=Helvetica;html=1;rounded=0;shadow=0;comic=0;labelBackgroundColor=none;strokeWidth=1" parent="1" vertex="1">
          <mxGeometry x="3006" y="1816" width="147" height="82" as="geometry" />
        </mxCell>
        <mxCell id="2egfwh6IOahEDaefVFSt-86" value="&lt;i style=&quot;border-color: var(--border-color); font-weight: 400;&quot;&gt;&amp;lt;&amp;lt;Class&amp;gt;&amp;gt;&lt;/i&gt;&lt;br style=&quot;border-color: var(--border-color); font-weight: 400;&quot;&gt;&lt;b style=&quot;border-color: var(--border-color);&quot;&gt;RelayCommand&lt;/b&gt;" style="swimlane;fontStyle=1;align=center;verticalAlign=top;childLayout=stackLayout;horizontal=1;startSize=48;horizontalStack=0;resizeParent=1;resizeParentMax=0;resizeLast=0;collapsible=1;marginBottom=0;whiteSpace=wrap;html=1;" parent="1" vertex="1">
          <mxGeometry x="386" y="652" width="208" height="157" as="geometry" />
        </mxCell>
        <mxCell id="2egfwh6IOahEDaefVFSt-87" value="&lt;p style=&quot;border-color: var(--border-color); margin: 0px 0px 0px 4px;&quot;&gt;- _canExecute: Predicate&amp;lt;object&amp;gt;&lt;/p&gt;&lt;p style=&quot;border-color: var(--border-color); margin: 0px 0px 0px 4px;&quot;&gt;- _execute: Action&amp;lt;object&amp;gt;&amp;nbsp;&lt;/p&gt;" style="text;strokeColor=none;fillColor=none;align=left;verticalAlign=top;spacingLeft=4;spacingRight=4;overflow=hidden;rotatable=0;points=[[0,0.5],[1,0.5]];portConstraint=eastwest;whiteSpace=wrap;html=1;" parent="2egfwh6IOahEDaefVFSt-86" vertex="1">
          <mxGeometry y="48" width="208" height="39" as="geometry" />
        </mxCell>
        <mxCell id="2egfwh6IOahEDaefVFSt-88" value="" style="line;strokeWidth=1;fillColor=none;align=left;verticalAlign=middle;spacingTop=-1;spacingLeft=3;spacingRight=3;rotatable=0;labelPosition=right;points=[];portConstraint=eastwest;strokeColor=inherit;" parent="2egfwh6IOahEDaefVFSt-86" vertex="1">
          <mxGeometry y="87" width="208" height="8" as="geometry" />
        </mxCell>
        <mxCell id="2egfwh6IOahEDaefVFSt-89" value="+ CanExecute(): bool&lt;br&gt;+ Execute(): void&lt;br&gt;+ RaiseCanExecuteChanged(): void" style="text;strokeColor=none;fillColor=none;align=left;verticalAlign=top;spacingLeft=4;spacingRight=4;overflow=hidden;rotatable=0;points=[[0,0.5],[1,0.5]];portConstraint=eastwest;whiteSpace=wrap;html=1;" parent="2egfwh6IOahEDaefVFSt-86" vertex="1">
          <mxGeometry y="95" width="208" height="62" as="geometry" />
        </mxCell>
        <mxCell id="2egfwh6IOahEDaefVFSt-92" value="&lt;font style=&quot;font-size: 25px;&quot;&gt;ViewModel&lt;/font&gt;" style="text;html=1;strokeColor=none;fillColor=none;align=center;verticalAlign=middle;whiteSpace=wrap;rounded=0;" parent="1" vertex="1">
          <mxGeometry x="-418" y="1318" width="138" height="43" as="geometry" />
        </mxCell>
        <mxCell id="2egfwh6IOahEDaefVFSt-94" value="&lt;font style=&quot;font-size: 25px;&quot;&gt;View&lt;/font&gt;" style="text;html=1;strokeColor=none;fillColor=none;align=center;verticalAlign=middle;whiteSpace=wrap;rounded=0;" parent="1" vertex="1">
          <mxGeometry x="-485" y="-89" width="60" height="30" as="geometry" />
        </mxCell>
        <mxCell id="2egfwh6IOahEDaefVFSt-96" value="&lt;font style=&quot;font-size: 25px;&quot;&gt;Model&lt;/font&gt;" style="text;html=1;strokeColor=none;fillColor=none;align=center;verticalAlign=middle;whiteSpace=wrap;rounded=0;" parent="1" vertex="1">
          <mxGeometry x="2853" y="1495" width="138" height="43" as="geometry" />
        </mxCell>
      </root>
    </mxGraphModel>
  </diagram>
</mxfile>
